<svg xmlns="http://www.w3.org/2000/svg" width="512" height="512" viewBox="0 0 512 512">
  <g fill="none" fill-rule="evenodd">
    <circle cx="256" cy="256" r="256" fill="#F2F2F2"/>
    <g fill-rule="nonzero" transform="translate(102 101)">
      <path fill="#000000" d="M155.317519,0 C70.9963057,0 0,68.395434 0,152.788749 L0,311 L155.287575,310.850207 C239.608789,310.850207 308,239.818418 308,155.455062 C308,71.091706 239.548901,0 155.317519,0 Z"/>
      <path fill="#F2E88F" d="M75.0415845,105.040265 C57.9818054,133.571973 57.2534866,168.937863 73.1242608,198.142155 L56,253 L117.491664,239.166282 C152.704171,254.965521 194.024141,247.869527 221.889374,221.237771 C249.754608,194.606016 258.573016,153.783049 244.169682,118.095773 C229.766348,82.4084977 195.03178,59.0187548 156.410438,59 C122.9762,59.0195996 92.1013636,76.5085562 75.0415845,105.040265 Z"/>
      <path fill="#00AEEF" d="M230.300947,212.884806 C203.423668,246.719575 156.967708,258.043937 117.485482,240.385328 L56,254.425141 L118.593058,247.046771 C160.087941,271.303351 213.216598,260.63085 242.074437,222.241795 C270.932276,183.852739 266.333631,129.966652 231.386288,97 C257.625157,131.330162 257.178227,179.050036 230.300947,212.884806 Z"/>
      <path fill="#00953A" d="M224.985413,195.127054 C201.79889,231.81795 156.789481,248.027839 115.681571,234.492226 L56,255 L117.477406,241.017427 C161.261405,260.887383 212.916833,244.622316 237.579964,203.199985 C262.243094,161.777654 252.077252,108.359945 213.943656,79 C243.625133,110.617069 248.171935,158.436157 224.985413,195.127054 Z"/>
      <path fill="#E63C2F" d="M78.9819143,200.753421 C61.6934842,159.241544 75.9408869,111.340899 113.140371,85.910587 C150.339855,60.4802752 200.332992,64.4648015 233,95.4635752 C202.745482,55.913428 147.010577,46.2595501 105.129485,73.3150429 C63.2483931,100.370536 49.3636277,154.999232 73.2741853,198.647624 L56,254 L78.9819143,200.753421 Z"/>
      <path fill="#D13239" d="M73.2274712,200.532407 C52.1255871,161.001501 61.1508705,111.888874 94.8771898,82.7217518 C128.603509,53.5546298 177.846267,52.2760168 213,79.6546335 C179.278371,43.6429294 123.932196,39.9576234 85.857606,71.1886713 C47.7830165,102.419719 39.7633068,158.081502 67.4345609,199.056084 L56.2646415,256 L73.2274712,200.532407 Z"/>
    </g>
  </g>
</svg>
